<svg xmlns="http://www.w3.org/2000/svg" xmlns:xlink="http://www.w3.org/1999/xlink" version="1.1" preserveAspectRatio="xMidYMid meet" viewBox="0 0 1000 750"><defs><path d="M532.57 219.12C526.36 234.82 513.01 244.28 502.77 240.23 492.53 236.18 489.26 220.15 495.47 204.45 501.68 188.75 515.03 179.29 525.27 183.34 535.51 187.39 538.78 203.43 532.57 219.12Z" id="adshejbbP"/><path d="M326.93 529.97C364.02 539.01 391.87 569.7 397.29 607.49 399.74 624.56 401.64 637.8 404.97 661.02 407.67 679.82 397.49 698.11 380.08 705.72 370.67 709.84 385.97 703.15 380.08 705.72 353.42 717.38 322.26 706.86 308.13 681.42 303.25 672.62 304.47 674.82 297.32 661.95 288.38 645.84 275.78 632.06 260.55 621.69 248.46 613.46 245.45 611.41 235.88 604.9 215.59 591.09 209.14 564.1 221.01 542.61 224.76 535.83 216.82 550.2 221.01 542.61 232.07 522.6 255.17 512.46 277.38 517.88 299.57 523.29 309.49 525.71 326.93 529.97Z" id="b2FAHyJjfb"/><path d="" id="aeUqTRbiR"/><path d="M336 460.98C327.59 482.24 309.5 495.06 295.63 489.57 281.76 484.08 277.33 462.36 285.74 441.09 294.15 419.82 312.24 407.01 326.11 412.5 339.99 417.98 344.42 439.71 336 460.98Z" id="aK7upCq9"/><path d="M489.3 664.03C468.03 672.46 446.31 668.04 440.81 654.17 435.32 640.31 448.12 622.21 469.38 613.78 490.64 605.35 512.37 609.76 517.86 623.63 523.36 637.5 510.56 655.6 489.3 664.03Z" id="fCPxY4iHm"/><path d="M476.83 582.22C448.53 593.44 419.61 587.56 412.3 569.11 404.98 550.65 422.02 526.56 450.32 515.34 478.61 504.13 507.53 510 514.85 528.46 522.16 546.91 505.13 571.01 476.83 582.22Z" id="a457TCYVCc"/><path d="M430.59 491.86C414.88 517.94 388.32 530.79 371.31 520.55 354.31 510.3 353.25 480.81 368.96 454.74 384.67 428.66 411.23 415.81 428.24 426.06 445.24 436.3 446.29 465.79 430.59 491.86Z" id="d5Vjc2gSR"/><path d="M525.87 270.04C553.24 276.72 573.8 299.37 577.8 327.26 579.61 339.86 581.01 349.63 583.47 366.77 585.46 380.65 577.95 394.15 565.1 399.76 558.16 402.8 569.45 397.86 565.1 399.76 545.42 408.37 522.43 400.6 512 381.82 508.39 375.33 509.29 376.95 504.02 367.46 497.42 355.57 488.12 345.39 476.88 337.74 467.95 331.67 465.73 330.15 458.67 325.35 443.69 315.16 438.94 295.24 447.7 279.38 450.46 274.37 444.61 284.97 447.7 279.38 455.86 264.6 472.9 257.12 489.3 261.12 505.68 265.12 513 266.9 525.87 270.04Z" id="a1I77GvWjx"/><path d="" id="d34r1tWeyM"/><path d="" id="a2PmPfWNF"/><path d="" id="a4BSscwc5x"/><path d="M645.71 368.99C630.02 375.21 613.98 371.95 609.92 361.72 605.87 351.48 615.31 338.12 631.01 331.9 646.7 325.68 662.73 328.94 666.79 339.17 670.85 349.41 661.4 362.77 645.71 368.99Z" id="bS9HFo1ob"/><path d="M636.5 308.61C615.62 316.89 594.28 312.55 588.88 298.93 583.48 285.31 596.05 267.53 616.94 259.25 637.82 250.97 659.17 255.31 664.56 268.93 669.96 282.55 657.39 300.33 636.5 308.61Z" id="chuuhDWP7"/><path d="M602.38 241.92C590.78 261.17 571.18 270.65 558.63 263.09 546.08 255.53 545.3 233.77 556.89 214.52 568.49 195.28 588.09 185.79 600.64 193.35 613.19 200.91 613.97 222.68 602.38 241.92Z" id="hMwy2DiKG"/><path d="M773.57 389.21C791.45 393.58 804.88 408.37 807.49 426.59 808.67 434.82 809.59 441.21 811.2 452.4 812.5 461.47 807.59 470.29 799.19 473.96 794.66 475.94 802.03 472.71 799.19 473.96 786.34 479.58 771.32 474.5 764.5 462.24 762.15 458 762.74 459.05 759.29 452.85 754.98 445.08 748.91 438.44 741.56 433.44 735.73 429.47 734.28 428.48 729.67 425.34 719.88 418.68 716.78 405.67 722.5 395.31 724.3 392.04 720.48 398.97 722.5 395.31 727.83 385.66 738.96 380.77 749.68 383.39 760.38 386 765.16 387.16 773.57 389.21Z" id="eAMuna5R6"/><path d="" id="cbr8a9CO5"/><path d="" id="atGMstbcG"/><path d="M777.94 355.95C773.89 366.2 765.16 372.38 758.47 369.74 751.79 367.09 749.65 356.62 753.71 346.36 757.76 336.11 766.49 329.93 773.17 332.58 779.86 335.22 782 345.69 777.94 355.95Z" id="ejoCpQsCb"/><path d="M851.85 453.85C841.6 457.92 831.13 455.79 828.48 449.1 825.83 442.41 832 433.69 842.25 429.62 852.5 425.56 862.98 427.69 865.63 434.37 868.28 441.06 862.1 449.79 851.85 453.85Z" id="ez0prtaMq"/><path d="M845.84 414.41C832.2 419.82 818.25 416.98 814.73 408.09 811.2 399.19 819.41 387.57 833.06 382.16 846.7 376.75 860.64 379.59 864.17 388.49 867.7 397.39 859.48 409 845.84 414.41Z" id="aqMtB0PFB"/><path d="M823.54 370.84C815.97 383.41 803.16 389.61 794.97 384.67 786.77 379.73 786.26 365.52 793.83 352.94 801.41 340.37 814.21 334.17 822.41 339.11 830.61 344.05 831.12 358.27 823.54 370.84Z" id="c4Ks43rDbJ"/></defs><g visibility="inherit"><g visibility="inherit"><g visibility="inherit"><use xlink:href="#adshejbbP" opacity="1" fill="#000000" fill-opacity="1"/></g><g visibility="inherit"><use xlink:href="#b2FAHyJjfb" opacity="1" fill="#000000" fill-opacity="1"/><g><use xlink:href="#b2FAHyJjfb" opacity="1" fill-opacity="0" stroke="#000000" stroke-width="1" stroke-opacity="1"/></g></g><g visibility="inherit"><g><use xlink:href="#aeUqTRbiR" opacity="1" fill-opacity="0" stroke="#000000" stroke-width="1" stroke-opacity="1"/></g></g><g visibility="inherit"><use xlink:href="#aK7upCq9" opacity="1" fill="#000000" fill-opacity="1"/></g><g visibility="inherit"><use xlink:href="#fCPxY4iHm" opacity="1" fill="#000000" fill-opacity="1"/></g><g visibility="inherit"><use xlink:href="#a457TCYVCc" opacity="1" fill="#000000" fill-opacity="1"/></g><g visibility="inherit"><use xlink:href="#d5Vjc2gSR" opacity="1" fill="#000000" fill-opacity="1"/></g><g visibility="inherit"><use xlink:href="#a1I77GvWjx" opacity="1" fill="#000000" fill-opacity="1"/><g><use xlink:href="#a1I77GvWjx" opacity="1" fill-opacity="0" stroke="#000000" stroke-width="1" stroke-opacity="1"/></g></g><g visibility="inherit"><g><use xlink:href="#d34r1tWeyM" opacity="1" fill-opacity="0" stroke="#000000" stroke-width="1" stroke-opacity="1"/></g></g><g visibility="inherit"><g><use xlink:href="#a2PmPfWNF" opacity="1" fill-opacity="0" stroke="#000000" stroke-width="1" stroke-opacity="1"/></g></g><g visibility="inherit"><g><use xlink:href="#a4BSscwc5x" opacity="1" fill-opacity="0" stroke="#000000" stroke-width="1" stroke-opacity="1"/></g></g><g visibility="inherit"><use xlink:href="#bS9HFo1ob" opacity="1" fill="#000000" fill-opacity="1"/></g><g visibility="inherit"><use xlink:href="#chuuhDWP7" opacity="1" fill="#000000" fill-opacity="1"/></g><g visibility="inherit"><use xlink:href="#hMwy2DiKG" opacity="1" fill="#000000" fill-opacity="1"/></g><g visibility="inherit"><use xlink:href="#eAMuna5R6" opacity="1" fill="#000000" fill-opacity="1"/><g><use xlink:href="#eAMuna5R6" opacity="1" fill-opacity="0" stroke="#000000" stroke-width="1" stroke-opacity="1"/></g></g><g visibility="inherit"><g><use xlink:href="#cbr8a9CO5" opacity="1" fill-opacity="0" stroke="#000000" stroke-width="1" stroke-opacity="1"/></g></g><g visibility="inherit"><g><use xlink:href="#atGMstbcG" opacity="1" fill-opacity="0" stroke="#000000" stroke-width="1" stroke-opacity="1"/></g></g><g visibility="inherit"><use xlink:href="#ejoCpQsCb" opacity="1" fill="#000000" fill-opacity="1"/></g><g visibility="inherit"><use xlink:href="#ez0prtaMq" opacity="1" fill="#000000" fill-opacity="1"/></g><g visibility="inherit"><use xlink:href="#aqMtB0PFB" opacity="1" fill="#000000" fill-opacity="1"/></g><g visibility="inherit"><use xlink:href="#c4Ks43rDbJ" opacity="1" fill="#000000" fill-opacity="1"/></g></g></g></svg>